<svg xmlns="http://www.w3.org/2000/svg" width="346.667" height="346.667" viewBox="0 0 260.000000 260.000000"><path d="M0 130v130h260V0H0v130zm108.5-83c27.9 1.8 43.8 6.6 54.4 16.5 7.3 6.8 9.6 12.8 9.6 24.5-.1 8.3-.4 10.2-2.7 14.5-1.4 2.7-4.6 6.9-6.9 9.3-4.2 4.1-16.6 11.2-19.5 11.2-3.6 0-.7 2 5.8 4 26.2 8 37.7 21.7 36.6 44-.3 6.9-1 9.8-3.2 14.4-8.5 17.3-30.1 27-65.6 29.6-8 .5-32.4 1-54.2 1H23v-2.9c0-2.6.4-2.9 4.1-3.5 8.4-1.3 13.8-5.9 16.6-14.1 1.6-4.5 1.8-10.4 1.8-64.5 0-66.3 0-66.3-6.8-72.7-4-3.8-6.1-4.9-11.4-5.8-3.9-.6-4.3-.9-4.3-3.6V46h34.8c19.1 0 41.9.5 50.7 1zm123 129.9c5.3 2.4 11.2 9.1 12.1 13.6 2 10.7-2.2 19.9-11.1 24.4-7.1 3.6-18 3.6-25.1 0-7.2-3.7-11.4-10.2-11.4-18 0-9.7 4-16.1 12.5-20 5.5-2.5 17.5-2.5 23 0z"/><path d="M86 88v33.3l11.3-.5c13.3-.7 20.6-3 26.4-8.6 7.5-7.3 10.6-18.9 8.5-31.3-1.5-8.8-4-13.7-9.3-18.2-6-5.2-11.6-6.9-25.1-7.4L86 54.8V88zM86 168.6v38.7l13.8-.6c18.3-.8 24.1-2.7 33-11.1 11.5-10.9 13.8-33.5 4.8-48.8-6.9-11.8-18.8-16.8-39.8-16.8H86v38.6z"/></svg>