<?xml version="1.0" standalone="no"?>
<!DOCTYPE svg PUBLIC "-//W3C//DTD SVG 20010904//EN"
 "http://www.w3.org/TR/2001/REC-SVG-20010904/DTD/svg10.dtd">
<svg version="1.0" xmlns="http://www.w3.org/2000/svg"
 width="260.000000pt" height="260.000000pt" viewBox="0 0 260.000000 260.000000"
 preserveAspectRatio="xMidYMid meet">
<metadata>
Created by potrace 1.11, written by Peter Selinger 2001-2013
</metadata>
<g transform="translate(0.000000,260.000000) scale(0.100000,-0.100000)"
fill="#000000" stroke="none">
<path d="M0 1300 l0 -1300 1300 0 1300 0 0 1300 0 1300 -1300 0 -1300 0 0
-1300z m1235 815 c206 -31 331 -81 406 -162 64 -70 83 -122 84 -228 0 -78 -4
-97 -27 -145 -15 -30 -47 -74 -70 -97 -46 -45 -167 -113 -200 -113 -28 0 -17
-24 13 -28 41 -5 149 -45 149 -56 0 -5 3 -7 6 -3 12 11 105 -46 155 -94 101
-98 135 -255 88 -401 -20 -63 -33 -82 -89 -138 -73 -73 -152 -117 -270 -149
-165 -45 -246 -51 -762 -51 l-488 0 0 24 c0 20 6 24 45 28 26 3 63 18 88 34
23 16 46 27 50 26 5 -1 6 2 3 7 -3 5 4 31 17 57 l22 49 0 610 c0 570 -1 613
-18 655 -11 25 -19 53 -20 62 -1 9 -5 14 -9 12 -4 -3 -8 0 -8 6 0 6 -4 9 -9 5
-5 -3 -13 0 -17 6 -10 17 -86 49 -116 49 -23 0 -28 4 -28 25 l0 25 453 0 c351
0 474 -3 552 -15z m1057 -1277 c45 -13 109 -69 132 -115 34 -68 12 -178 -47
-234 -65 -62 -215 -80 -298 -35 -24 13 -43 28 -42 34 1 5 -5 9 -14 8 -27 -2
-63 79 -63 141 0 78 58 178 91 157 7 -4 10 -3 6 3 -25 40 142 69 235 41z"/>
<path d="M853 1720 l2 -332 121 4 c114 4 125 6 190 38 47 24 79 48 100 77 18
23 35 39 40 35 4 -4 4 -2 1 4 -3 6 0 28 8 50 19 51 19 188 0 249 -8 27 -11 53
-8 58 4 6 1 7 -7 2 -10 -6 -12 -4 -7 9 4 9 3 15 -2 12 -9 -6 -62 49 -55 58 2
3 1 4 -2 2 -3 -3 -24 6 -46 20 -54 34 -63 36 -210 41 l-127 5 2 -332z"/>
<path d="M858 1283 c-4 -88 -3 -703 2 -727 l5 -29 120 2 c139 2 187 11 258 49
29 14 59 27 67 27 8 0 15 5 15 10 0 6 14 29 31 50 41 52 62 103 75 185 18 118
-19 266 -81 325 -16 16 -27 33 -23 38 3 6 1 7 -4 4 -6 -4 -16 -1 -22 7 -20 23
-123 64 -191 75 -36 6 -107 11 -157 11 l-93 0 -2 -27z"/>
</g>
</svg>
